<?xml version="1.0" encoding="UTF-8" standalone="no"?>
<svg
   xmlns:dc="http://purl.org/dc/elements/1.1/"
   xmlns:cc="http://creativecommons.org/ns#"
   xmlns:rdf="http://www.w3.org/1999/02/22-rdf-syntax-ns#"
   xmlns:svg="http://www.w3.org/2000/svg"
   xmlns="http://www.w3.org/2000/svg"
   xmlns:sodipodi="http://sodipodi.sourceforge.net/DTD/sodipodi-0.dtd"
   xmlns:inkscape="http://www.inkscape.org/namespaces/inkscape"
   viewBox="0 0 1440 320"
   version="1.1"
   id="svg12"
   sodipodi:docname="other-wave.svg"
   inkscape:version="1.0.1 (c497b03c, 2020-09-10)">
  <metadata
     id="metadata18">
    <rdf:RDF>
      <cc:Work
         rdf:about="">
        <dc:format>image/svg+xml</dc:format>
        <dc:type
           rdf:resource="http://purl.org/dc/dcmitype/StillImage" />
      </cc:Work>
    </rdf:RDF>
  </metadata>
  <defs
     id="defs16" />
  <sodipodi:namedview
     pagecolor="#ffffff"
     bordercolor="#666666"
     borderopacity="1"
     objecttolerance="10"
     gridtolerance="10"
     guidetolerance="10"
     inkscape:pageopacity="0"
     inkscape:pageshadow="2"
     inkscape:window-width="2560"
     inkscape:window-height="1440"
     id="namedview14"
     showgrid="false"
     inkscape:zoom="0.48344344"
     inkscape:cx="908.54107"
     inkscape:cy="222.11067"
     inkscape:window-x="0"
     inkscape:window-y="0"
     inkscape:window-maximized="0"
     inkscape:current-layer="svg12" />
  <path
     fill="#a2d9ff"
     fill-opacity="1"
     d="M -7.275e-6,205.12671 C 45.424293,152.92874 100.15749,162.39667 130.99999,165.3 c 43.5,5.7 87,47.7 131,42.7 43.5,-5 87,-59 131,-74.7 43.4,-16.3 87,5.7 131,26.7 43.3,21 87,43 131,58.7 43.2,16.3 87,26.3 130,10.6 44.1,-16.3 88,-58.3 131,-64 44,-5.3 88.00001,26.7 131.00001,37.4 43.9,10.3 88,0.3 131,-5.4 43.8,-5.3 60.7466,13.07739 104.7466,7.77739 85.1457,-17.49749 88.1673,63.77417 157.2534,0.0493 V 0 h -21.8 -109.2 -131 -131 -131.00001 -131 -130 -131 -131 -131 -131 H 21.999993 -7.275e-6 Z"
     id="path22"
     sodipodi:nodetypes="ccccccccccccccccccccccccccc" />
</svg>
