<?xml version="1.0" encoding="UTF-8" standalone="no"?>
<svg
   xmlns:dc="http://purl.org/dc/elements/1.1/"
   xmlns:cc="http://creativecommons.org/ns#"
   xmlns:rdf="http://www.w3.org/1999/02/22-rdf-syntax-ns#"
   xmlns:svg="http://www.w3.org/2000/svg"
   xmlns="http://www.w3.org/2000/svg"
   xmlns:sodipodi="http://sodipodi.sourceforge.net/DTD/sodipodi-0.dtd"
   xmlns:inkscape="http://www.inkscape.org/namespaces/inkscape"
   viewBox="0 0 1440 320"
   version="1.1"
   id="svg835"
   sodipodi:docname="lblue.svg"
   inkscape:version="1.0.1 (c497b03c, 2020-09-10)">
  <metadata
     id="metadata841">
    <rdf:RDF>
      <cc:Work
         rdf:about="">
        <dc:format>image/svg+xml</dc:format>
        <dc:type
           rdf:resource="http://purl.org/dc/dcmitype/StillImage" />
      </cc:Work>
    </rdf:RDF>
  </metadata>
  <defs
     id="defs839" />
  <sodipodi:namedview
     pagecolor="#ffffff"
     bordercolor="#666666"
     borderopacity="1"
     objecttolerance="10"
     gridtolerance="10"
     guidetolerance="10"
     inkscape:pageopacity="0"
     inkscape:pageshadow="2"
     inkscape:window-width="2560"
     inkscape:window-height="1440"
     id="namedview837"
     showgrid="false"
     inkscape:zoom="1.0365548"
     inkscape:cx="963.42639"
     inkscape:cy="195.317"
     inkscape:window-x="0"
     inkscape:window-y="0"
     inkscape:window-maximized="0"
     inkscape:current-layer="svg835" />
  <path
     fill="#0099ff"
     fill-opacity="1"
     d="m 0,128 18.5,16 C 36.9,160 74,192 111,181.3 147.7,171 185,117 222,90.7 258.5,64 295,64 332,64 c 37.2,0 74,0 111,32 37,32 74,96 111,106.7 36.8,10.3 74,-31.7 111,-37.4 36.5,-5.3 73,26.7 110,37.4 37.3,10.3 74,0.3 111,-32 37.1,-31.7 74,-85.7 111,-80 36.8,5.3 74,69.3 111,96 36.6,26.3 74,16.3 110,-16 37.4,-31.7 74,-85.7 111,-117.4 37.2,-32.3 82.3186,49.48941 111,74.7 V 0 0 0 H 1329 1218 1108 997 886 775 665 554 443 332 222 111 18 0 Z"
     id="path833"
     sodipodi:nodetypes="ccccssccccccccccccccccccccccccccc" />
</svg>
